# xmcd
#
# Track frame offsets:
#	150
#	10894
#	18832
#	26189
#	36704
#	40061
#	44185
#	51307
#	57938
#	76322
#	96984
#	115267
#	134248
#
# Disc length: 2006 seconds
#
# Revision: 0
# Processed by: cddbd v1.4PL0 Copyright (c) Steve Scherf et al.
# Submitted via: audiograbber 1.80
#
DISCID=bd07d40d
DTITLE=Leonardo - Leonardo Ao Vivo - CD 1
DYEAR=1900
DGENRE=
TTITLE0=Negro Gato - Vem Quente que eu Estou Fervendo
TTITLE1=Entre Tapas e Beijos - Gatinha Manhosa
TTITLE2=Custe o Que Custar - Quando
TTITLE3=Sentado à Beira do Caminho
TTITLE4=Feche os Olhos
TTITLE5=O Calhambeque
TTITLE6=O Bom - Rua Augusta
TTITLE7=Negro Gato
TTITLE8=Um Sonhador
TTITLE9=Temporal de Amor
TTITLE10=Dia de Rodeio
TTITLE11=Amor Dividido
TTITLE12=Entre Tapas e Beijos
EXTD=
EXTT0=
EXTT1=
EXTT2=
EXTT3=
EXTT4=
EXTT5=
EXTT6=
EXTT7=
EXTT8=
EXTT9=
EXTT10=
EXTT11=
EXTT12=
PLAYORDER=
